<?xml version="1.0" encoding="utf-8"?>
<!-- Generator: Adobe Illustrator 18.1.1, SVG Export Plug-In . SVG Version: 6.00 Build 0)  -->
<!DOCTYPE svg PUBLIC "-//W3C//DTD SVG 1.1//EN" "http://www.w3.org/Graphics/SVG/1.1/DTD/svg11.dtd">
<svg version="1.1" id="Layer_1" xmlns="http://www.w3.org/2000/svg" xmlns:xlink="http://www.w3.org/1999/xlink" x="0px" y="0px"
	 viewBox="0 0 612 792" enable-background="new 0 0 612 792" xml:space="preserve">
<g>
	<g>
		<path fill="#010101" d="M322.8,401.8c0-3.7-0.9-6.7-2.6-8.9c-1.7-2.2-4.2-3.3-7.2-3.3c-3.2,0-5.7,1.1-7.7,3.3
			c-2,2.2-2.9,5-2.9,8.4v4.8c0,2.9,0.9,5.3,2.8,7.2c1.9,2,4.2,2.9,7,2.9c3.3,0,5.9-1.3,7.8-3.8C321.9,409.8,322.8,406.3,322.8,401.8
			 M328.5,401.8c0,5.7-1.4,10.3-4.2,13.9c-2.8,3.5-6.6,5.2-11.4,5.2c-4.5,0-7.9-1.9-10.3-5.8h-0.1v4.9h-5.5v-50.9l5.5,1.7v20.9h0.1
			c2.7-4.6,6.7-6.9,11.9-6.9c4.3,0,7.7,1.5,10.3,4.6C327.2,392.5,328.5,396.6,328.5,401.8"/>
		<path fill="#010101" d="M342.2,374.1c0,1-0.4,1.9-1.1,2.6c-0.7,0.7-1.6,1-2.5,1c-1,0-1.9-0.3-2.6-1c-0.7-0.7-1-1.5-1-2.6
			c0-1,0.3-1.8,1-2.5c0.7-0.7,1.5-1,2.6-1c1,0,1.9,0.3,2.6,1C341.8,372.3,342.2,373.1,342.2,374.1"/>
	</g>
	<rect x="335.7" y="385.7" fill="#010101" width="5.5" height="34.4"/>
	<g>
		<path fill="#010101" d="M378.8,420.1h-5.5v-19.6c0-7.3-2.7-10.9-8-10.9c-2.7,0-5,1-6.8,3.1c-1.8,2.1-2.7,4.7-2.7,7.8v19.6h-5.5
			v-34.4h5.5v5.7h0.1c2.6-4.4,6.3-6.5,11.3-6.5c3.8,0,6.7,1.2,8.6,3.7c2,2.4,3,6,3,10.5V420.1z"/>
		<path fill="#010101" d="M412.3,404.6v-5.1c0-2.8-0.9-5.1-2.8-7c-1.9-1.9-4.2-2.9-6.8-2.9c-3.4,0-6.1,1.2-8,3.7
			c-1.9,2.5-2.9,6-2.9,10.4c0,3.8,0.9,6.8,2.8,9.1c1.8,2.3,4.3,3.5,7.4,3.5c3.1,0,5.6-1.1,7.5-3.3
			C411.3,410.8,412.3,408,412.3,404.6 M417.8,417.3c0,12.6-6,18.9-18.1,18.9c-4.2,0-7.9-0.8-11.1-2.4l1.4-4.8
			c3.4,1.8,6.1,2.5,9.6,2.5c8.5,0,12.7-4.5,12.7-13.5v-3.8h-0.1c-2.6,4.4-6.6,6.6-11.8,6.6c-2.8,0-5.3-0.7-7.4-2.1
			c-2.2-1.4-3.9-3.4-5-6c-1.2-2.6-1.8-5.5-1.8-8.9c0-5.8,1.4-10.5,4.3-14c2.8-3.5,6.7-5.2,11.5-5.2c4.6,0,8.1,1.9,10.3,5.6h0.1v-4.7
			h5.5V417.3z"/>
	</g>
	<polygon fill="#010101" points="232.6,376.7 240.7,394.2 252.9,399.8 208.5,423.3 226.8,436.2 272.8,408.8 272.8,389.1 	"/>
	<polyline fill="#010101" points="208.5,355.8 208.5,423.3 226.8,406.8 226.8,361.3 208.5,355.8 	"/>
</g>
</svg>
